# Made in Blockbench 4.12.4
mtllib Rock.mtl

o sphere
v 0 -0.4375 0
v 0 0.4375 0
v 0.116025625 0.15625 0.37888625
v 0.133974375 0 0.375
v 0.053525625 -0.21875 0.37888625
v 0.0669875 -0.31638625 0.21875
v 0.3169875 0.21875 0.27736375
v 0.366025625 0 0.2577725
v 0.2455125 -0.37888625 0.16013625
v 0.4330125 0.15625 0.1015225
v 0.5625 0 0.1172275
v 0.4330125 -0.21875 0.1015225
v 0.25 -0.37888625 0.05861375
v 0.25 0.31638625 -0.05861375
v 0.5 0 -0.1172275
v 0.4330125 -0.21875 -0.1015225
v 0.1205125 0.31638625 -0.16013625
v 0.3794875 0.15625 -0.33986375
v 0.3169875 -0.21875 -0.27736375
v 0.0669875 0.37888625 -0.21875
v 0.133974375 0 -0.4375
v 0.053525625 -0.21875 -0.37888625
v 0.0669875 -0.37888625 -0.21875
v -0.0669875 0.37888625 -0.21875
v -0.133974375 0 -0.4375
v -0.116025625 -0.21875 -0.37888625
v -0.0669875 -0.37888625 -0.28125
v -0.4419875 0.21875 -0.21486375
v -0.366025625 0 -0.3202725
v -0.1830125 -0.37888625 -0.16013625
v -0.25 0.37888625 -0.05861375
v -0.4330125 0.21875 -0.1015225
v -0.5 0 -0.1172275
v -0.4330125 -0.21875 -0.1015225
v -0.1875 -0.37888625 0.00388625
v -0.25 0.31638625 0.05861375
v -0.5 0 0.1172275
v -0.4330125 -0.21875 0.1015225
v -0.1830125 0.31638625 0.16013625
v -0.366025625 0 0.3202725
v -0.1830125 -0.37888625 0.16013625
v -0.0669875 0.31638625 0.21875
v -0.178525625 0.15625 0.37888625
v -0.133974375 0 0.4375
v -0.116025625 -0.21875 0.37888625
v -0.0669875 -0.37888625 0.21875
v 0.116025625 0.21875 -0.37888625
v 0.25 0.31638625 0.05861375
v -0.3169875 0.21875 0.27736375
vt 0.5458813203541464 0.40767237512956356
vt 0.46821394302118935 0.40728066931117035
vt 0.42057772745896704 0.4185691556494713
vt 0.6137713934254433 0.6428427970442834
vt 0.6277985604745219 0.5449116483728482
vt 0.7000494042901433 0.5862274273348009
vt 0.6426352032329508 0.6551006126260474
vt 0.6277985604745219 0.5449116483728482
vt 0.6285734093205776 0.49395652062819506
vt 0.7000494042901433 0.5862274273348009
vt 0.5458813203541464 0.40767237512956356
vt 0.5368860700808086 0.4353828435380337
vt 0.6285734093205776 0.49395652062819506
vt 0.5368860700808086 0.4353828435380337
vt 0.5458813203541464 0.40767237512956356
vt 0.42057772745896704 0.4185691556494713
vt 0.550690703221436 0.7339674106676001
vt 0.6426352032329508 0.6551006126260474
vt 0.5366362382134167 0.7542023084929081
vt 0.7000494042901433 0.5862274273348009
vt 0.6354102724380015 0.6328977989606077
vt 0.6426352032329508 0.6551006126260474
vt 0.7000494042901433 0.5862274273348009
vt 0.6285734093205776 0.49395652062819506
vt 0.6017803435259053 0.541191494790783
vt 0.6354102724380015 0.6328977989606077
vt 0.6285734093205776 0.49395652062819506
vt 0.5368860700808086 0.4353828435380337
vt 0.6017803435259053 0.541191494790783
vt 0.5366362382134167 0.7542023084929081
vt 0.4644228137246573 0.7671650538454995
vt 0.41718057589410695 0.7978569467717266
vt 0.5366362382134167 0.7542023084929081
vt 0.5606772552152887 0.7316090334846079
vt 0.4644228137246573 0.7671650538454995
vt 0.6017803435259053 0.541191494790783
vt 0.5343565655398471 0.5736312477600221
vt 0.6354102724380015 0.6328977989606077
vt 0.4644228137246573 0.7671650538454995
vt 0.43453834814716286 0.803519542759751
vt 0.41718057589410695 0.7978569467717266
vt 0.4644228137246573 0.7671650538454995
vt 0.5606772552152887 0.7316090334846079
vt 0.44518096187980394 0.757029512142223
vt 0.43453834814716286 0.803519542759751
vt 0.5606772552152887 0.7316090334846079
vt 0.4484027443107078 0.6790371144776405
vt 0.44518096187980394 0.757029512142223
vt 0.5343565655398471 0.5736312477600221
vt 0.41950788526204563 0.5851045219099007
vt 0.4484027443107078 0.6790371144776405
vt 0.5343565655398471 0.5736312477600221
vt 0.4351341355958461 0.49517540374991054
vt 0.41950788526204563 0.5851045219099007
vt 0.43453834814716286 0.803519542759751
vt 0.3706284600214691 0.8004959591457779
vt 0.41718057589410695 0.7978569467717266
vt 0.43453834814716286 0.803519542759751
vt 0.44518096187980394 0.757029512142223
vt 0.3706284600214691 0.8004959591457779
vt 0.4484027443107078 0.6790371144776405
vt 0.33723946400443944 0.6720787541814289
vt 0.44518096187980394 0.757029512142223
vt 0.4484027443107078 0.6790371144776405
vt 0.41950788526204563 0.5851045219099007
vt 0.3501805074155542 0.5799875181549988
vt 0.33723946400443944 0.6720787541814289
vt 0.41950788526204563 0.5851045219099007
vt 0.4351341355958461 0.49517540374991054
vt 0.3763595643425443 0.5042013289441415
vt 0.3501805074155542 0.5799875181549988
vt 0.3763595643425443 0.5042013289441415
vt 0.4351341355958461 0.49517540374991054
vt 0.42057772745896704 0.4185691556494713
vt 0.33723946400443944 0.6720787541814289
vt 0.2387204518944292 0.6452056410091901
vt 0.19386551200328817 0.7170872714122419
vt 0.33723946400443944 0.6720787541814289
vt 0.3501805074155542 0.5799875181549988
vt 0.2387204518944292 0.6452056410091901
vt 0.3763595643425443 0.5042013289441415
vt 0.332078803232092 0.4726759575972812
vt 0.3501805074155542 0.5799875181549988
vt 0.332078803232092 0.4726759575972812
vt 0.3763595643425443 0.5042013289441415
vt 0.42057772745896704 0.4185691556494713
vt 0.19386551200328817 0.7170872714122419
vt 0.19674819023106233 0.6969411755417172
vt 0.28477603925479605 0.771363230469955
vt 0.19386551200328817 0.7170872714122419
vt 0.2387204518944292 0.6452056410091901
vt 0.17430952677767608 0.6007005779109835
vt 0.19674819023106233 0.6969411755417172
vt 0.2387204518944292 0.6452056410091901
vt 0.21587356428335025 0.5099521780273912
vt 0.17430952677767608 0.6007005779109835
vt 0.332078803232092 0.4726759575972812
vt 0.33567691188567894 0.43151876252701826
vt 0.21587356428335025 0.5099521780273912
vt 0.33567691188567894 0.43151876252701826
vt 0.332078803232092 0.4726759575972812
vt 0.42057772745896704 0.4185691556494713
vt 0.28477603925479605 0.771363230469955
vt 0.2892828976027809 0.7191735113700299
vt 0.41718057589410695 0.7978569467717266
vt 0.28477603925479605 0.771363230469955
vt 0.19674819023106233 0.6969411755417172
vt 0.2892828976027809 0.7191735113700299
vt 0.17430952677767608 0.6007005779109835
vt 0.1688544222404686 0.5457093071653019
vt 0.19674819023106233 0.6969411755417172
vt 0.17430952677767608 0.6007005779109835
vt 0.21587356428335025 0.5099521780273912
vt 0.21457172988701323 0.45788830288991045
vt 0.1688544222404686 0.5457093071653019
vt 0.21587356428335025 0.5099521780273912
vt 0.33567691188567894 0.43151876252701826
vt 0.21457172988701323 0.45788830288991045
vt 0.2892828976027809 0.7191735113700299
vt 0.32924974866017553 0.7010069173822013
vt 0.41718057589410695 0.7978569467717266
vt 0.1688544222404686 0.5457093071653019
vt 0.21457172988701323 0.45788830288991045
vt 0.24031164990796344 0.49547818248372033
vt 0.24031164990796344 0.49547818248372033
vt 0.3867356475692416 0.38936575187637945
vt 0.3776910757762936 0.4706801633704395
vt 0.34374843700204427 0.38808630018382373
vt 0.4031081860732153 0.3760411715259625
vt 0.3867356475692416 0.38936575187637945
vt 0.4031081860732153 0.3760411715259625
vt 0.34374843700204427 0.38808630018382373
vt 0.42057772745896704 0.4185691556494713
vt 0.34544457774246135 0.5649455415158516
vt 0.5158212246519251 0.5778228945156091
vt 0.3975189362356172 0.6925185188260828
vt 0.46821394302118935 0.40728066931117035
vt 0.4031081860732153 0.3760411715259625
vt 0.42057772745896704 0.4185691556494713
vt 0.6137713934254433 0.6428427970442834
vt 0.6426352032329508 0.6551006126260474
vt 0.550690703221436 0.7339674106676001
vt 0.550690703221436 0.7339674106676001
vt 0.5366362382134167 0.7542023084929081
vt 0.41718057589410695 0.7978569467717266
vt 0.2892828976027809 0.7191735113700299
vt 0.2590231754142711 0.6185784933083478
vt 0.32924974866017553 0.7010069173822013
vt 0.1688544222404686 0.5457093071653019
vt 0.24031164990796344 0.49547818248372033
vt 0.2590231754142711 0.6185784933083478
vt 0.32924974866017553 0.7010069173822013
vt 0.3975189362356172 0.6925185188260828
vt 0.41718057589410695 0.7978569467717266
vt 0.32924974866017553 0.7010069173822013
vt 0.2590231754142711 0.6185784933083478
vt 0.34544457774246135 0.5649455415158516
vt 0.3975189362356172 0.6925185188260828
vt 0.2590231754142711 0.6185784933083478
vt 0.24031164990796344 0.49547818248372033
vt 0.3776910757762936 0.4706801633704395
vt 0.34544457774246135 0.5649455415158516
vt 0.3706284600214691 0.8004959591457779
vt 0.44518096187980394 0.757029512142223
vt 0.33723946400443944 0.6720787541814289
vt 0.19386551200328817 0.7170872714122419
vt 0.3706284600214691 0.8004959591457779
vt 0.33723946400443944 0.6720787541814289
vt 0.28477603925479605 0.771363230469955
vt 0.3706284600214691 0.8004959591457779
vt 0.19386551200328817 0.7170872714122419
vt 0.41718057589410695 0.7978569467717266
vt 0.3706284600214691 0.8004959591457779
vt 0.28477603925479605 0.771363230469955
vt 0.19674819023106233 0.6969411755417172
vt 0.1688544222404686 0.5457093071653019
vt 0.2892828976027809 0.7191735113700299
vt 0.2590231754142711 0.6185784933083478
vt 0.2892828976027809 0.7191735113700299
vt 0.1688544222404686 0.5457093071653019
vt 0.41718057589410695 0.7978569467717266
vt 0.3975189362356172 0.6925185188260828
vt 0.550690703221436 0.7339674106676001
vt 0.3975189362356172 0.6925185188260828
vt 0.6137713934254433 0.6428427970442834
vt 0.550690703221436 0.7339674106676001
vt 0.3975189362356172 0.6925185188260828
vt 0.5158212246519251 0.5778228945156091
vt 0.6137713934254433 0.6428427970442834
vt 0.6426352032329508 0.6551006126260474
vt 0.6354102724380015 0.6328977989606077
vt 0.5366362382134167 0.7542023084929081
vt 0.5366362382134167 0.7542023084929081
vt 0.6354102724380015 0.6328977989606077
vt 0.5606772552152887 0.7316090334846079
vt 0.5343565655398471 0.5736312477600221
vt 0.5606772552152887 0.7316090334846079
vt 0.6354102724380015 0.6328977989606077
vt 0.4484027443107078 0.6790371144776405
vt 0.5606772552152887 0.7316090334846079
vt 0.5343565655398471 0.5736312477600221
vt 0.6137713934254433 0.6428427970442834
vt 0.5158212246519251 0.5778228945156091
vt 0.5225391731658174 0.5027346374323303
vt 0.6277985604745219 0.5449116483728482
vt 0.5158212246519251 0.5778228945156091
vt 0.34544457774246135 0.5649455415158516
vt 0.3776910757762936 0.4706801633704395
vt 0.5225391731658174 0.5027346374323303
vt 0.3776910757762936 0.4706801633704395
vt 0.3867356475692416 0.38936575187637945
vt 0.5225391731658174 0.5027346374323303
vt 0.3867356475692416 0.38936575187637945
vt 0.47703761783874965 0.39814733868932617
vt 0.5225391731658174 0.5027346374323303
vt 0.3867356475692416 0.38936575187637945
vt 0.4031081860732153 0.3760411715259625
vt 0.46821394302118935 0.40728066931117035
vt 0.47703761783874965 0.39814733868932617
vt 0.5225391731658174 0.5027346374323303
vt 0.47703761783874965 0.39814733868932617
vt 0.46821394302118935 0.40728066931117035
vt 0.46821394302118935 0.40728066931117035
vt 0.6277985604745219 0.5449116483728482
vt 0.5225391731658174 0.5027346374323303
vt 0.5458813203541464 0.40767237512956356
vt 0.6277985604745219 0.5449116483728482
vt 0.46821394302118935 0.40728066931117035
vt 0.6285734093205776 0.49395652062819506
vt 0.6277985604745219 0.5449116483728482
vt 0.5458813203541464 0.40767237512956356
vt 0.42057772745896704 0.4185691556494713
vt 0.6017803435259053 0.541191494790783
vt 0.5368860700808086 0.4353828435380337
vt 0.4351341355958461 0.49517540374991054
vt 0.6017803435259053 0.541191494790783
vt 0.42057772745896704 0.4185691556494713
vt 0.5343565655398471 0.5736312477600221
vt 0.6017803435259053 0.541191494790783
vt 0.4351341355958461 0.49517540374991054
vt 0.2387204518944292 0.6452056410091901
vt 0.3501805074155542 0.5799875181549988
vt 0.332078803232092 0.4726759575972812
vt 0.21587356428335025 0.5099521780273912
vt 0.2387204518944292 0.6452056410091901
vt 0.332078803232092 0.4726759575972812
vt 0.34374843700204427 0.38808630018382373
vt 0.33567691188567894 0.43151876252701826
vt 0.42057772745896704 0.4185691556494713
vt 0.34374843700204427 0.38808630018382373
vt 0.21457172988701323 0.45788830288991045
vt 0.33567691188567894 0.43151876252701826
vt 0.34374843700204427 0.38808630018382373
vt 0.24031164990796344 0.49547818248372033
vt 0.21457172988701323 0.45788830288991045
vt 0.3867356475692416 0.38936575187637945
vt 0.24031164990796344 0.49547818248372033
vt 0.34374843700204427 0.38808630018382373
vn -0.12999921773711412 -0.8500303115992065 0.5104396857125182
vn 0.5808409641373705 0.05748827397524106 0.8119845273989631
vn 0.5396705419375001 -0.3736179202604735 0.7544304844219403
vn 0.6543802815944156 -0.7556121990211361 0.028924933031150173
vn 0.22603275688171084 -0.9740684630094685 0.009991105385571459
vn 0.6585053356835356 0.7525760578681161 0
vn 0.7637933370984773 0.6125056941750083 -0.2036087247815352
vn 0.8605366527366397 -0.5093885248970771 0
vn 0.6585053356835356 -0.7525760578681161 0
vn 0.3191630474631858 0.8558166037602918 -0.40707848120750834
vn 0.2896246980452628 0.8829827328619156 -0.36940361090532603
vn 0.800536495085578 -0.28307007244804755 -0.5282164841429654
vn 0.7374045465753425 0.6739349982458617 0.045234420847005165
vn 0.2671202507587082 0.8779362252572285 -0.3973345643355157
vn 0.2032448920364398 0.2689415350553129 -0.9414679838333262
vn 0.3358653472007454 -0.35706558992323323 -0.8716069257655633
vn 0.26688097736752703 -0.6701496354600951 -0.6925850200603931
vn 0 0.96592597624953 -0.25881848544180985
vn 0 0.7071067811865476 -0.7071067811865476
vn 0 0.25881848544180985 -0.96592597624953
vn 0 -0.2588184854418099 -0.9659259762495301
vn 0.31884174702861723 -0.656665695367994 -0.6834691689305439
vn 0.10588815919973299 -0.9681254742297992 -0.22698185806054763
vn -0.4349319989848102 0.26383068204467963 -0.8609457169130448
vn -0.4346388194786098 -0.2661964077274725 -0.8603653695467001
vn -0.6074121864087976 -0.5407895346648889 -0.5818909820567915
vn -0.16936768307343789 -0.9721054698528092 -0.16225148200427805
vn -0.6645523344551079 0.7453864863822991 0.0526230053200804
vn -0.8344265814363737 -0.024452756018594972 -0.5505763733720345
vn -0.8005372291691317 -0.2830702120021712 -0.528215296816795
vn -0.5417818496871115 -0.8403884320769532 -0.014822637445904773
vn -0.29851199293980585 -0.9543709394681719 -0.008167004943330215
vn -0.30234516988490756 0.8411210579485818 0.44844482840448163
vn -0.6616509797241178 0.6616487814921114 0.35275894174367756
vn -0.9561715498713563 0.2928070477577484 0
vn -0.9561715498713564 -0.2928070477577484 0
vn -0.5463142192109903 -0.837580308918426 0
vn -0.37485894398016806 0.8934776390282694 0.24734284035432055
vn -0.8005372291691317 -0.28307021200217125 0.528215296816795
vn -0.4346388194786098 -0.26619640772747244 0.8603653695467001
vn -0.3139932265016876 -0.717698037190224 0.621544673474369
vn -0.11345603549675327 -0.9678272340826544 0.2245844450919929
vn 0 0.7071067811865476 0.7071067811865476
vn 0.39619941066675873 -0.8492930567052641 0.34889444079770376
vn 0.6317719290563294 0.7612238501951089 0.14629586306720607
vn 0.4359867673509509 0.8999530758294388 0
vn -0.40422420090428735 0.8749078970626235 0.26671889145830674
vn -0.8005369246558314 0.2830714481106332 0.5282150958909949
vn -0.2133869543378823 0.880935590165407 0.4223961336214249
vn -0.06970275920484653 0.8042534754974966 0.5901846088381405
vn -0.43463849624936607 0.26619900345184494 0.8603647297160283
vn -0.26111006580225926 0.5168633543604665 -0.8152752948887799
vn -0.22922266172210898 0.5167652343676217 -0.8248700891061627
vn -0.36129561657831893 0.836045496719941 -0.4129084703122472
vn -0.17802363333768212 0.9627635089204475 -0.20345518392127046
vn -0.6799090525785955 0.6120646547910457 0.403857076918549
vn -0.7804278835947055 0.6239953930784672 0.03952300500643271
vn 0.2667680270362453 0.8062156157760162 0.528063633125865
vn 0.17919098858964547 0.9176459979719426 0.35470609244040774
vn 0.09296326941349835 0.7551596758294508 0.6489157838588242
vn 0.7447212658890445 0.6295119171919095 -0.22159644005711318
vn 0.785412204178584 0.6189044622213008 0.00921608213400391
vn 0.7807865818350735 -0.22713913326153715 -0.5820482177341493
vn 0.47875784651993153 -0.2213888302744163 -0.8495751351265663
vn 0.44360520918447394 0.028678391700528043 0.8957633438770926
vn 0 0.35122850904620156 0.9362897705481902
vn 0.22076752423045748 -0.23549102434295263 0.9464701145303328
vn 0 0.017762911336460747 0.9998422270442737
vn 0.29365218875459664 -0.6294728318143534 0.719397210202579
vn 0.9037605932879842 -0.32747523966532543 0.27563881697955533
vn 0.3973742103171827 -0.47260317887787684 0.786600262070463
vn 0.1996082479291565 -0.3035731733618522 0.9316651092391875
vn 0.5489077607805003 -0.3679956597101409 0.7505194631649703
vn 0.3050103302472247 -0.8247579557282448 -0.4761754014073447
vn 0.42763161068962435 -0.8972992717500718 -0.10947704077014661
vn 0.46200138711106803 -0.8328423478399649 -0.30484150300092666
vn -0.6086515432902885 -0.5397810334296895 -0.5815322302331372
vn -0.5003705797503359 -0.5307953127195697 -0.6840216509111733
vn -0.298195091483677 -0.9544665224756086 0.008564163027411214
vn -0.5418986789919155 -0.8402997110937503 0.015563330060647829
vn -0.5003705797503359 -0.5307953127195698 0.6840216509111733
vn -0.6086515432902885 -0.5397810334296895 0.5815322302331373
usemtl m_07e8d9db-8c17-69de-c66f-7045079816c1
f 9/1/1 6/2/1 1/3/1
f 7/4/2 8/5/2 11/6/2 10/7/2
f 8/8/3 12/9/3 11/10/3
f 9/11/4 13/12/4 12/13/4
f 13/14/5 9/15/5 1/16/5
f 48/17/6 10/18/6 14/19/6
f 11/20/7 15/21/7 10/22/7
f 11/23/8 12/24/8 16/25/8 15/26/8
f 12/27/9 13/28/9 16/29/9
f 14/30/10 17/31/10 2/32/10
f 14/33/11 18/34/11 17/35/11
f 16/36/12 19/37/12 15/38/12
f 17/39/13 20/40/13 2/41/13
f 17/42/14 18/43/14 47/44/14 20/45/14
f 18/46/15 21/47/15 47/48/15
f 19/49/16 22/50/16 21/51/16
f 19/52/17 23/53/17 22/54/17
f 20/55/18 24/56/18 2/57/18
f 20/58/19 47/59/19 24/60/19
f 21/61/20 25/62/20 47/63/20
f 21/64/21 22/65/21 26/66/21 25/67/21
f 22/68/22 23/69/22 27/70/22 26/71/22
f 27/72/23 23/73/23 1/74/23
f 25/75/24 29/76/24 28/77/24
f 25/78/25 26/79/25 29/80/25
f 27/81/26 30/82/26 26/83/26
f 30/84/27 27/85/27 1/86/27
f 28/87/28 32/88/28 31/89/28
f 28/90/29 29/91/29 33/92/29 32/93/29
f 29/94/30 34/95/30 33/96/30
f 30/97/31 35/98/31 34/99/31
f 35/100/32 30/101/32 1/102/32
f 31/103/33 36/104/33 2/105/33
f 31/106/34 32/107/34 36/108/34
f 33/109/35 37/110/35 32/111/35
f 33/112/36 34/113/36 38/114/36 37/115/36
f 34/116/37 35/117/37 38/118/37
f 36/119/38 39/120/38 2/121/38
f 37/122/39 38/123/39 40/124/39
f 40/125/40 45/126/40 44/127/40
f 41/128/41 46/129/41 45/130/41
f 46/131/42 41/132/42 1/133/42
f 43/134/43 3/135/43 42/136/43
f 6/137/44 46/138/44 1/139/44
f 7/140/45 10/141/45 48/142/45
f 48/143/46 14/144/46 2/145/46
f 36/146/47 49/147/47 39/148/47
f 37/149/48 40/150/48 49/151/48
f 39/152/49 42/153/49 2/154/49
f 39/155/50 49/156/50 43/157/50 42/158/50
f 49/159/51 40/160/51 44/161/51 43/162/51
f 24/163/52 47/164/52 25/165/52
f 28/166/53 24/167/53 25/168/53
f 31/169/54 24/170/54 28/171/54
f 2/172/55 24/173/55 31/174/55
f 32/175/56 37/176/56 36/177/56
f 49/178/57 36/179/57 37/180/57
f 2/181/58 42/182/58 48/183/58
f 42/184/59 7/185/59 48/186/59
f 42/187/60 3/188/60 7/189/60
f 10/190/61 15/191/61 14/192/61
f 14/193/62 15/194/62 18/195/62
f 19/196/63 18/197/63 15/198/63
f 21/199/64 18/200/64 19/201/64
f 7/202/65 3/203/65 4/204/65 8/205/65
f 3/206/66 43/207/66 44/208/66 4/209/66
f 44/210/67 45/211/67 4/212/67
f 45/213/68 5/214/68 4/215/68
f 45/216/69 46/217/69 6/218/69 5/219/69
f 4/220/70 5/221/70 6/222/70
f 6/223/71 8/224/71 4/225/71
f 9/226/72 8/227/72 6/228/72
f 12/229/73 8/230/73 9/231/73
f 1/232/74 16/233/74 13/234/74
f 23/235/75 16/236/75 1/237/75
f 19/238/76 16/239/76 23/240/76
f 29/241/77 26/242/77 30/243/77
f 34/244/78 29/245/78 30/246/78
f 41/247/79 35/248/79 1/249/79
f 41/250/80 38/251/80 35/252/80
f 41/253/81 40/254/81 38/255/81
f 45/256/82 40/257/82 41/258/82