# Made in Blockbench 4.12.3
mtllib Wall.mtl

o WallBase
v 0.5 0 0.5
v 0.5 0 -0.5
v -0.5 0 0.5
v -0.5 0 -0.5
v 0.5 1 -0.5
v -0.5 1 0.5
v 0.5 1 0.5
v -0.5 1 -0.5
vt 0.75 0
vt 0.75 1
vt 0.5 1
vt 0.5 0
vt 1 0
vt 1 1
vt 0.75 1
vt 0.75 0
vt 1 0
vt 1 1
vt 0.75 1
vt 0.75 0
vt 1 0
vt 1 1
vt 0.75 1
vt 0.75 0
vt 1 0
vt 1 1
vt 0.75 1
vt 0.75 0
vn 0 -1 0
vn 0 0 1
vn 1 0 0
vn 0 0 -1
vn -1 0 0
usemtl m_0a7dba81-2224-bfb7-d4f2-b5bd044f054c
f 2/1/1 1/2/1 3/3/1 4/4/1
f 1/5/2 7/6/2 6/7/2 3/8/2
f 2/9/3 5/10/3 7/11/3 1/12/3
f 4/13/4 8/14/4 5/15/4 2/16/4
f 3/17/5 6/18/5 8/19/5 4/20/5