# Made in Blockbench 4.12.4
mtllib Arrow.mtl

o cuboid
v 0.03125 0.0625 0.5
v 0.03125 0.0625 -0.5
v 0.03125 0 0.5
v 0.03125 0 -0.5
v -0.03125 0.0625 0.5
v -0.03125 0.0625 -0.5
v -0.03125 0 0.5
v -0.03125 0 -0.5
vt 1 0.875
vt 0 0.875
vt 0 0.8125
vt 1 0.8125
vt 1 0.8125
vt 1 0.875
vt 0 0.875
vt 0 0.8125
vt 0.25 0
vt 0.3125 0
vt 0.3125 1
vt 0.25 1
vt 0.3125 0
vt 0.3125 1
vt 0.25 1
vt 0.25 0
vt 0.3125 0.8125
vt 0.3125 0.875
vt 0.25 0.875
vt 0.25 0.8125
vt 0.28125 0.875
vt 0.25 0.875
vt 0.25 0.84375
vt 0.28125 0.84375
vn 1 0 0
vn -1 0 0
vn 0 1 0
vn 0 -1 0
vn 0 0 1
vn 0 0 -1
usemtl m_56480b27-d529-7361-d7e0-7d4a59a2dff8
f 2/1/1 1/2/1 3/3/1 4/4/1
f 7/5/2 5/6/2 6/7/2 8/8/2
f 5/9/3 1/10/3 2/11/3 6/12/3
f 4/13/4 3/14/4 7/15/4 8/16/4
f 3/17/5 1/18/5 5/19/5 7/20/5
f 6/21/6 2/22/6 4/23/6 8/24/6
o cone
v -2.42861286636753e-17 0.03125 -0.5
v -2.42861286636753e-17 0.031250000000000056 -0.75
v 0.01674682452694514 0.09375 -0.5
v 0.0457531754730548 0.07700317547305484 -0.5
v 0.06249999999999997 0.04799682452694517 -0.5
v 0.06249999999999997 0.014503175473054832 -0.5
v 0.04575317547305481 -0.014503175473054825 -0.5
v 0.01674682452694516 -0.031249999999999986 -0.5
v -0.016746824526945165 -0.03125 -0.5
v -0.04575317547305485 -0.014503175473054838 -0.5
v -0.06250000000000001 0.014503175473054845 -0.5
v -0.06250000000000003 0.04799682452694514 -0.5
v -0.045753175473054866 0.07700317547305482 -0.5
v -0.016746824526945186 0.09375 -0.5
vt 0.33328503848575614 0.6707068584454757
vt 0.33277376584642815 0.688508442165507
vt 0.33333793507491716 0.6260290782462087
vt 0.33277376584642815 0.688508442165507
vt 0.33328503848575614 0.6707068584454757
vt 0.5801239710064781 0.6267950191244435
vt 0.3338172328959692 0.6404412153496737
vt 0.33328503848575614 0.6707068584454757
vt 0.33333793507491716 0.6260290782462087
vt 0.33328503848575614 0.6707068584454757
vt 0.3338172328959692 0.6404412153496737
vt 0.5801239710064781 0.6267950191244435
vt 0.3342192355090301 0.606188874289282
vt 0.3338172328959692 0.6404412153496737
vt 0.33333793507491716 0.6260290782462087
vt 0.3338172328959692 0.6404412153496737
vt 0.3342192355090301 0.606188874289282
vt 0.5801239710064781 0.6267950191244435
vt 0.3343782215624923 0.5776539314216518
vt 0.3342192355090301 0.606188874289282
vt 0.33333793507491716 0.6260290782462087
vt 0.3342192355090301 0.606188874289282
vt 0.3343782215624923 0.5776539314216518
vt 0.5801239710064781 0.6267950191244435
vt 0.3342551312835692 0.5626226052317386
vt 0.3343782215624923 0.5776539314216518
vt 0.33333793507491716 0.6260290782462087
vt 0.3343782215624923 0.5776539314216518
vt 0.3342551312835692 0.5626226052317386
vt 0.5801239710064781 0.6267950191244435
vt 0.33389130789071575 0.5647453715223619
vt 0.3342551312835692 0.5626226052317386
vt 0.33333793507491716 0.6260290782462087
vt 0.3342551312835692 0.5626226052317386
vt 0.33389130789071575 0.5647453715223619
vt 0.5801239710064781 0.6267950191244435
vt 0.33338893484202137 0.5829534013256766
vt 0.33389130789071575 0.5647453715223619
vt 0.33333793507491716 0.6260290782462087
vt 0.33389130789071575 0.5647453715223619
vt 0.33338893484202137 0.5829534013256766
vt 0.5801239710064781 0.6267950191244435
vt 0.3328792365603819 0.6122363473171859
vt 0.33338893484202137 0.5829534013256766
vt 0.33333793507491716 0.6260290782462087
vt 0.33338893484202137 0.5829534013256766
vt 0.3328792365603819 0.6122363473171859
vt 0.5801239710064781 0.6267950191244435
vt 0.33249082373630456 0.6450996029864005
vt 0.3328792365603819 0.6122363473171859
vt 0.33333793507491716 0.6260290782462087
vt 0.3328792365603819 0.6122363473171859
vt 0.33249082373630456 0.6450996029864005
vt 0.5801239710064781 0.6267950191244435
vt 0.33232292891505744 0.6732286454784009
vt 0.33249082373630456 0.6450996029864005
vt 0.33333793507491716 0.6260290782462087
vt 0.33249082373630456 0.6450996029864005
vt 0.33232292891505744 0.6732286454784009
vt 0.5801239710064781 0.6267950191244435
vt 0.33242352981411055 0.6892426109087832
vt 0.33232292891505744 0.6732286454784009
vt 0.33333793507491716 0.6260290782462087
vt 0.33232292891505744 0.6732286454784009
vt 0.33242352981411055 0.6892426109087832
vt 0.5801239710064781 0.6267950191244435
vt 0.33277376584642815 0.688508442165507
vt 0.33242352981411055 0.6892426109087832
vt 0.33333793507491716 0.6260290782462087
vt 0.33242352981411055 0.6892426109087832
vt 0.33277376584642815 0.688508442165507
vt 0.5801239710064781 0.6267950191244435
vn 0 -2.220446049250313e-16 1
vn 0.4850712500726659 0.840168050416806 -0.2425356250363328
vn 0 -2.220446049250313e-16 1
vn 0.8401680504168059 0.48507125007266605 -0.24253562503633289
vn 0 -2.220446049250313e-16 1
vn 0.970142500145332 5.385372704143809e-17 -0.242535625036333
vn 0 -2.220446049250313e-16 1
vn 0.840168050416806 -0.4850712500726658 -0.2425356250363331
vn 0 -2.220446049250313e-16 1
vn 0.485071250072666 -0.840168050416806 -0.2425356250363332
vn 0 -2.220446049250313e-16 1
vn 4.01969690991186e-16 -0.970142500145332 -0.24253562503633322
vn 0 -2.220446049250313e-16 1
vn -0.4850712500726655 -0.8401680504168062 -0.24253562503633314
vn 0 -2.220446049250313e-16 1
vn -0.8401680504168063 -0.48507125007266555 -0.2425356250363331
vn 0 -2.220446049250313e-16 1
vn -0.970142500145332 -3.481159639497482e-16 -0.242535625036333
vn 0 -2.220446049250313e-16 1
vn -0.8401680504168063 0.48507125007266566 -0.24253562503633289
vn 0 -2.220446049250313e-16 1
vn -0.4850712500726659 0.8401680504168061 -0.2425356250363328
vn 0 -2.220446049250313e-16 1
vn 0 0.970142500145332 -0.24253562503633277
usemtl m_2496fdc6-16e4-0bf5-6eea-90919c42864b
f 12/25/7 11/26/7 9/27/7
f 11/28/8 12/29/8 10/30/8
f 13/31/9 12/32/9 9/33/9
f 12/34/10 13/35/10 10/36/10
f 14/37/11 13/38/11 9/39/11
f 13/40/12 14/41/12 10/42/12
f 15/43/13 14/44/13 9/45/13
f 14/46/14 15/47/14 10/48/14
f 16/49/15 15/50/15 9/51/15
f 15/52/16 16/53/16 10/54/16
f 17/55/17 16/56/17 9/57/17
f 16/58/18 17/59/18 10/60/18
f 18/61/19 17/62/19 9/63/19
f 17/64/20 18/65/20 10/66/20
f 19/67/21 18/68/21 9/69/21
f 18/70/22 19/71/22 10/72/22
f 20/73/23 19/74/23 9/75/23
f 19/76/24 20/77/24 10/78/24
f 21/79/25 20/80/25 9/81/25
f 20/82/26 21/83/26 10/84/26
f 22/85/27 21/86/27 9/87/27
f 21/88/28 22/89/28 10/90/28
f 11/91/29 22/92/29 9/93/29
f 22/94/30 11/95/30 10/96/30
o cuboid
v 0.015625 0.15625 0.53125
v 0.015625 0.15625 0.40625
v 0.015625 0.03125 0.46875
v 0.015625 0.03125 0.34375
v -0.015625 0.15625 0.53125
v -0.015625 0.15625 0.40625
v -0.015625 0.03125 0.46875
v -0.015625 0.03125 0.34375
vt 0.34375 0.90625
vt 0.21875 0.90625
vt 0.28125 0.78125
vt 0.40625 0.78125
vt 0.34375 0.78125
vt 0.40625 0.90625
vt 0.28125 0.90625
vt 0.21875 0.78125
vt 0.25 0.65625
vt 0.28125 0.65625
vt 0.28125 0.78125
vt 0.25 0.78125
vt 0.265625 0.71875
vt 0.265625 0.78125
vt 0.25 0.78125
vt 0.25 0.71875
vt 0.28125 0.7664937500000016
vt 0.28125 0.9062500000000016
vt 0.25 0.9062500000000016
vt 0.25 0.7664937500000016
vt 0.28125 0.9062500000000014
vt 0.25 0.9062500000000014
vt 0.25 0.7664937500000014
vt 0.28125 0.7664937500000014
vn 1 0 0
vn -1 0 0
vn 0 1 0
vn 0 -1 0
vn 0 -0.44721359549995804 0.8944271909999161
vn 0 0.44721359549995804 -0.8944271909999161
usemtl m_aa16149e-acb7-fee2-f908-0858ae552730
f 24/97/31 23/98/31 25/99/31 26/100/31
f 29/101/32 27/102/32 28/103/32 30/104/32
f 27/105/33 23/106/33 24/107/33 28/108/33
f 26/109/34 25/110/34 29/111/34 30/112/34
f 25/113/35 23/114/35 27/115/35 29/116/35
f 28/117/36 24/118/36 26/119/36 30/120/36
o cuboid
v -0.125 0.04687500000000003 0.53125
v -0.125 0.04687500000000003 0.40625
v 3.469446951953614e-18 0.046875 0.46875
v 3.469446951953614e-18 0.046875 0.34375
v -0.125 0.015625000000000028 0.53125
v -0.125 0.015625000000000028 0.40625
v -3.469446951953614e-18 0.015625 0.46875
v -3.469446951953614e-18 0.015625 0.34375
vt 0.34375 0.90625
vt 0.21875 0.90625
vt 0.28125 0.78125
vt 0.40625 0.78125
vt 0.34375 0.78125
vt 0.40625 0.90625
vt 0.28125 0.90625
vt 0.21875 0.78125
vt 0.25 0.65625
vt 0.28125 0.65625
vt 0.28125 0.78125
vt 0.25 0.78125
vt 0.265625 0.71875
vt 0.265625 0.78125
vt 0.25 0.78125
vt 0.25 0.71875
vt 0.28125 0.7664937500000016
vt 0.28125 0.9062500000000016
vt 0.25 0.9062500000000016
vt 0.25 0.7664937500000016
vt 0.28125 0.9062500000000014
vt 0.25 0.9062500000000014
vt 0.25 0.7664937500000014
vt 0.28125 0.7664937500000014
vn 2.220446049250313e-16 1 0
vn -2.220446049250313e-16 -1 0
vn -1 2.220446049250313e-16 0
vn 1 -2.220446049250313e-16 0
vn 0.44721359549995804 -9.930136612989094e-17 0.8944271909999161
vn -0.44721359549995804 9.930136612989094e-17 -0.8944271909999161
usemtl m_aa16149e-acb7-fee2-f908-0858ae552730
f 32/121/37 31/122/37 33/123/37 34/124/37
f 37/125/38 35/126/38 36/127/38 38/128/38
f 35/129/39 31/130/39 32/131/39 36/132/39
f 34/133/40 33/134/40 37/135/40 38/136/40
f 33/137/41 31/138/41 35/139/41 37/140/41
f 36/141/42 32/142/42 34/143/42 38/144/42
o cuboid
v -0.015624999999999984 -0.09375 0.53125
v -0.015624999999999984 -0.09375 0.40625
v -0.015625 0.031249999999999997 0.46875
v -0.015625 0.031249999999999997 0.34375
v 0.015625000000000014 -0.09375 0.53125
v 0.015625000000000014 -0.09375 0.40625
v 0.015625 0.03125 0.46875
v 0.015625 0.03125 0.34375
vt 0.34375 0.90625
vt 0.21875 0.90625
vt 0.28125 0.78125
vt 0.40625 0.78125
vt 0.34375 0.78125
vt 0.40625 0.90625
vt 0.28125 0.90625
vt 0.21875 0.78125
vt 0.25 0.65625
vt 0.28125 0.65625
vt 0.28125 0.78125
vt 0.25 0.78125
vt 0.265625 0.71875
vt 0.265625 0.78125
vt 0.25 0.78125
vt 0.25 0.71875
vt 0.28125 0.7664937500000016
vt 0.28125 0.9062500000000016
vt 0.25 0.9062500000000016
vt 0.25 0.7664937500000016
vt 0.28125 0.9062500000000014
vt 0.25 0.9062500000000014
vt 0.25 0.7664937500000014
vt 0.28125 0.7664937500000014
vn -1 -1.2246467991473532e-16 0
vn 1 1.2246467991473532e-16 0
vn 1.2246467991473532e-16 -1 0
vn -1.2246467991473532e-16 1 0
vn -5.4767869826420275e-17 0.44721359549995804 0.8944271909999161
vn 5.4767869826420275e-17 -0.44721359549995804 -0.8944271909999161
usemtl m_aa16149e-acb7-fee2-f908-0858ae552730
f 40/145/43 39/146/43 41/147/43 42/148/43
f 45/149/44 43/150/44 44/151/44 46/152/44
f 43/153/45 39/154/45 40/155/45 44/156/45
f 42/157/46 41/158/46 45/159/46 46/160/46
f 41/161/47 39/162/47 43/163/47 45/164/47
f 44/165/48 40/166/48 42/167/48 46/168/48
o cuboid
v 0.125 0.015625000000000028 0.53125
v 0.125 0.015625000000000028 0.40625
v 3.469446951953614e-18 0.015625 0.46875
v 3.469446951953614e-18 0.015625 0.34375
v 0.125 0.04687500000000003 0.53125
v 0.125 0.04687500000000003 0.40625
v -3.469446951953614e-18 0.046875 0.46875
v -3.469446951953614e-18 0.046875 0.34375
vt 0.34375 0.90625
vt 0.21875 0.90625
vt 0.28125 0.78125
vt 0.40625 0.78125
vt 0.34375 0.78125
vt 0.40625 0.90625
vt 0.28125 0.90625
vt 0.21875 0.78125
vt 0.25 0.65625
vt 0.28125 0.65625
vt 0.28125 0.78125
vt 0.25 0.78125
vt 0.265625 0.71875
vt 0.265625 0.78125
vt 0.25 0.78125
vt 0.25 0.71875
vt 0.28125 0.7664937500000016
vt 0.28125 0.9062500000000016
vt 0.25 0.9062500000000016
vt 0.25 0.7664937500000016
vt 0.28125 0.9062500000000014
vt 0.25 0.9062500000000014
vt 0.25 0.7664937500000014
vt 0.28125 0.7664937500000014
vn 2.220446049250313e-16 -1 0
vn -2.220446049250313e-16 1 0
vn 1 2.220446049250313e-16 0
vn -1 -2.220446049250313e-16 0
vn -0.44721359549995804 -9.930136612989094e-17 0.8944271909999161
vn 0.44721359549995804 9.930136612989094e-17 -0.8944271909999161
usemtl m_aa16149e-acb7-fee2-f908-0858ae552730
f 48/169/49 47/170/49 49/171/49 50/172/49
f 53/173/50 51/174/50 52/175/50 54/176/50
f 51/177/51 47/178/51 48/179/51 52/180/51
f 50/181/52 49/182/52 53/183/52 54/184/52
f 49/185/53 47/186/53 51/187/53 53/188/53
f 52/189/54 48/190/54 50/191/54 54/192/54