# Made in Blockbench 4.12.4
mtllib Arsonist.mtl

o cuboid
v -0.014514565439602 1.4899271728019903 0.628125
v -0.014514565439602 1.4899271728019903 -0.628125
v 0.07387378220871643 1.4015388251536718 0.628125
v 0.07387378220871643 1.4015388251536718 -0.628125
v -0.6774271728019903 0.827014565439602 0.628125
v -0.6774271728019903 0.827014565439602 -0.628125
v -0.5890388251536718 0.7386262177912835 0.628125
v -0.5890388251536718 0.7386262177912835 -0.628125
vt 0.5 0.078125
vt 0 0.078125
vt 0 0
vt 0.5 0
vt 0.5 0.25
vt 0.5 0.5
vt 0 0.5
vt 0 0.25
vt 0 0
vt 0.5 0
vt 0.5 0.5
vt 0 0.5
vt 0.5 0
vt 0.5 0.5
vt 0 0.5
vt 0 0
vt 0.5 0.25
vt 0.5 0.328125
vt 0 0.328125
vt 0 0.25
vt 0.5 0.078125
vt 0 0.078125
vt 0 0
vt 0.5 0
vn 0.7071067811865475 0.7071067811865476 0
vn -0.7071067811865475 -0.7071067811865476 0
vn -0.7071067811865476 0.7071067811865475 0
vn 0.7071067811865476 -0.7071067811865475 0
vn 0 0 1
vn 0 0 -1
usemtl m_abdd27a0-afc9-2d33-c36a-72659b44f8e6
f 2/1/1 1/2/1 3/3/1 4/4/1
f 7/5/2 5/6/2 6/7/2 8/8/2
f 5/9/3 1/10/3 2/11/3 6/12/3
f 4/13/4 3/14/4 7/15/4 8/16/4
f 3/17/5 1/18/5 5/19/5 7/20/5
f 6/21/6 2/22/6 4/23/6 8/24/6
o cuboid
v -0.21875 1.5625 -0.28125
v -0.21875 1.5625 -0.46875
v -0.21875 1.4375 -0.28125
v -0.21875 1.4375 -0.46875
v -0.40625 1.5625 -0.28125
v -0.40625 1.5625 -0.46875
v -0.40625 1.4375 -0.28125
v -0.40625 1.4375 -0.46875
vt 0.203125 0.953125
vt 0.109375 0.953125
vt 0.109375 0.890625
vt 0.203125 0.890625
vt 0.203125 0.890625
vt 0.203125 0.953125
vt 0.109375 0.953125
vt 0.109375 0.890625
vt 0.109375 0.796875
vt 0.203125 0.796875
vt 0.203125 0.890625
vt 0.109375 0.890625
vt 0.203125 0.796875
vt 0.203125 0.890625
vt 0.109375 0.890625
vt 0.109375 0.796875
vt 0.203125 0.890625
vt 0.203125 0.953125
vt 0.109375 0.953125
vt 0.109375 0.890625
vt 0.203125 0.953125
vt 0.109375 0.953125
vt 0.109375 0.890625
vt 0.203125 0.890625
vn 1 0 0
vn -1 0 0
vn 0 1 0
vn 0 -1 0
vn 0 0 1
vn 0 0 -1
usemtl m_4427a9f5-ea03-0e95-86c3-9356f8e56156
f 10/25/7 9/26/7 11/27/7 12/28/7
f 15/29/8 13/30/8 14/31/8 16/32/8
f 13/33/9 9/34/9 10/35/9 14/36/9
f 12/37/10 11/38/10 15/39/10 16/40/10
f 11/41/11 9/42/11 13/43/11 15/44/11
f 14/45/12 10/46/12 12/47/12 16/48/12
o cuboid
v -0.25 1.4375 -0.3125
v -0.25 1.4375 -0.4375
v -0.25 1.0625 -0.3125
v -0.25 1.0625 -0.4375
v -0.375 1.4375 -0.3125
v -0.375 1.4375 -0.4375
v -0.375 1.0625 -0.3125
v -0.375 1.0625 -0.4375
vt 0.265625 1
vt 0.203125 1
vt 0.203125 0.8125
vt 0.265625 0.8125
vt 0.125 0.8125
vt 0.125 1
vt 0.0625 1
vt 0.0625 0.8125
vt 0.109375 0.859375
vt 0.140625 0.859375
vt 0.140625 0.890625
vt 0.109375 0.890625
vt 0.140625 0.859375
vt 0.140625 0.890625
vt 0.109375 0.890625
vt 0.109375 0.859375
vt 0.203125 0.8125
vt 0.203125 1
vt 0.140625 1
vt 0.140625 0.8125
vt 0.0625 1
vt 0 1
vt 0 0.8125
vt 0.0625 0.8125
vn 1 0 0
vn -1 0 0
vn 0 1 0
vn 0 -1 0
vn 0 0 1
vn 0 0 -1
usemtl m_4427a9f5-ea03-0e95-86c3-9356f8e56156
f 18/49/13 17/50/13 19/51/13 20/52/13
f 23/53/14 21/54/14 22/55/14 24/56/14
f 21/57/15 17/58/15 18/59/15 22/60/15
f 20/61/16 19/62/16 23/63/16 24/64/16
f 19/65/17 17/66/17 21/67/17 23/68/17
f 22/69/18 18/70/18 20/71/18 24/72/18
o cuboid
v 0.014514565439601917 1.4899271728019903 -0.625
v 0.014514565439602084 1.4899271728019903 0.625
v -0.07387378220871652 1.4015388251536718 -0.625
v -0.07387378220871635 1.4015388251536718 0.625
v 0.6774271728019902 0.827014565439602 -0.6250000000000001
v 0.6774271728019904 0.827014565439602 0.6249999999999999
v 0.5890388251536718 0.7386262177912835 -0.6250000000000001
v 0.5890388251536718 0.7386262177912835 0.6249999999999999
vt 0.5 0.390625
vt 0 0.390625
vt 0 0.3125
vt 0.5 0.3125
vt 0.5 0.25
vt 0.5 0.5
vt 0 0.5
vt 0 0.25
vt 0 0
vt 0.5 0
vt 0.5 0.5
vt 0 0.5
vt 0.5 0
vt 0.5 0.5
vt 0 0.5
vt 0 0
vt 0.5 0.1875
vt 0.5 0.265625
vt 0 0.265625
vt 0 0.1875
vt 0.5 0.5
vt 0 0.5
vt 0 0.421875
vt 0.5 0.421875
vn -0.7071067811865475 0.7071067811865476 8.65956056235493e-17
vn 0.7071067811865475 -0.7071067811865476 -8.65956056235493e-17
vn 0.7071067811865476 0.7071067811865475 -8.659560562354932e-17
vn -0.7071067811865476 -0.7071067811865475 8.659560562354932e-17
vn -1.224646799147353e-16 1.232595164407831e-32 -1
vn 1.224646799147353e-16 -1.232595164407831e-32 1
usemtl m_abdd27a0-afc9-2d33-c36a-72659b44f8e6
f 26/73/19 25/74/19 27/75/19 28/76/19
f 31/77/20 29/78/20 30/79/20 32/80/20
f 29/81/21 25/82/21 26/83/21 30/84/21
f 28/85/22 27/86/22 31/87/22 32/88/22
f 27/89/23 25/90/23 29/91/23 31/92/23
f 30/93/24 26/94/24 28/95/24 32/96/24
o pyramid
v 0 1.4375 0.56875
v 0.5625 0.8125 0.56875
v 0.5625 0.8125 -0.56875
v -0.5625 0.8125 0.56875
v -0.5625 0.8125 -0.56875
v 0 1.4375 -0.56875
vt 0.5 0.515625
vt 1 0.515625
vt 0.75 0.859375
vt 0.25 0.75
vt 0.25 1
vt 0 1
vt 0 0.75
vt 0.5 0.515625
vt 1 0.515625
vt 0.75 0.859375
vt 0 0.31427218749999997
vt 0 0
vt 0.5 0
vt 0.5 0.32240562500000003
vt 0 0.5
vt 0 0.18572781250000003
vt 0.5 0.18572781250000003
vt 0.5 0.5
vn 0 0 1
vn 0 -1 0
vn 0 0 -1
vn 0.7432941462471664 0.6689647316224496 0
vn -0.7432941462471664 0.6689647316224496 0
usemtl m_abdd27a0-afc9-2d33-c36a-72659b44f8e6
f 36/97/25 34/98/25 33/99/25
f 35/100/26 34/101/26 36/102/26 37/103/26
f 35/104/27 37/105/27 38/106/27
f 33/107/28 34/108/28 35/109/28 38/110/28
f 38/111/29 37/112/29 36/113/29 33/114/29
o cuboid
v 0.5 0.875 0.5625
v 0.5 0.875 -0.5625
v 0.5 0.5 0.5625
v 0.5 0.5 -0.5625
v -0.5 0.875 0.5625
v -0.5 0.875 -0.5625
v -0.5 0.5 0.5625
v -0.5 0.5 -0.5625
vt 1 1
vt 0.5 1
vt 0.5 0.7578125
vt 1 0.7578125
vt 0.984375 0.5078125
vt 0.984375 0.75
vt 0.5 0.75
vt 0.5 0.5078125
vt 0.203125 0.546875
vt 0.453125 0.546875
vt 0.453125 0.796875
vt 0.203125 0.796875
vt 1 0.5
vt 1 1
vt 0.5 1
vt 0.5 0.5
vt 0.484375 0.75
vt 0.484375 1
vt 0.015625 1
vt 0.015625 0.75
vt 1 0.984375
vt 0.5 0.984375
vt 0.5 0.7505040625
vt 1 0.7505040625
vn 1 0 0
vn -1 0 0
vn 0 1 0
vn 0 -1 0
vn 0 0 1
vn 0 0 -1
usemtl m_abdd27a0-afc9-2d33-c36a-72659b44f8e6
f 40/115/30 39/116/30 41/117/30 42/118/30
f 45/119/31 43/120/31 44/121/31 46/122/31
f 43/123/32 39/124/32 40/125/32 44/126/32
f 42/127/33 41/128/33 45/129/33 46/130/33
f 41/131/34 39/132/34 43/133/34 45/134/34
f 44/135/35 40/136/35 42/137/35 46/138/35
o cuboid
v 0.4375 0.5 0.5
v 0.4375 0.5 -0.5
v 0.4375 0 0.5
v 0.4375 0 -0.5
v -0.4375 0.5 0.5
v -0.4375 0.5 -0.5
v -0.4375 0 0.5
v -0.4375 0 -0.5
vt 0.5 1
vt 0 1
vt 0 0.75
vt 0.5 0.75
vt 0.984375 0.5078125
vt 0.984375 0.75
vt 0.5 0.75
vt 0.5 0.5078125
vt 0 0.75
vt 0.25 0.75
vt 0.25 1
vt 0 1
vt 1 0.5
vt 1 1
vt 0.5 1
vt 0.5 0.5
vt 0.484375 0.5078125
vt 0.484375 0.734375
vt 0.03125 0.734375
vt 0.03125 0.5078125
vt 0.51953125 0.49647796875000005
vt 0.98046875 0.49647796875000005
vt 0.98046875 0.73828125
vt 0.51953125 0.73828125
vn 1 0 0
vn -1 0 0
vn 0 1 0
vn 0 -1 0
vn 0 0 1
vn 0 0 -1
usemtl m_abdd27a0-afc9-2d33-c36a-72659b44f8e6
f 48/139/36 47/140/36 49/141/36 50/142/36
f 53/143/37 51/144/37 52/145/37 54/146/37
f 51/147/38 47/148/38 48/149/38 52/150/38
f 50/151/39 49/152/39 53/153/39 54/154/39
f 49/155/40 47/156/40 51/157/40 53/158/40
f 52/159/41 48/160/41 50/161/41 54/162/41
o plane
v 0.3352475644174329 1.15625 -0.05935921676911454
v 0.3352475644174329 2.15625 -0.05935921676911454
v -0.3718592167691145 1.15625 0.647747564417433
v -0.3718592167691145 2.15625 0.647747564417433
vt 1 0
vt 1 1
vt 0 1
vt 0 0
vn 0.7071067811865476 0 0.7071067811865475
usemtl m_0d83cb3b-f1ed-418c-ab52-8171ce971757
f 55/163/42 56/164/42 58/165/42 57/166/42
o plane
v -0.37185921676911443 1.15625 -0.05935921676911449
v -0.37185921676911443 2.15625 -0.05935921676911449
v 0.335247564417433 1.15625 0.6477475644174331
v 0.335247564417433 2.15625 0.6477475644174331
vt 1 0
vt 1 1
vt 0 1
vt 0 0
vn 0.7071067811865476 0 -0.7071067811865475
usemtl m_0d83cb3b-f1ed-418c-ab52-8171ce971757
f 59/167/43 60/168/43 62/169/43 61/170/43
o plane
v 0.6477475644174329 0.84375 -0.5593592167691146
v 0.6477475644174329 1.84375 -0.5593592167691146
v -0.05935921676911449 0.84375 0.14774756441743297
v -0.05935921676911449 1.84375 0.14774756441743297
vt 1 0
vt 1 1
vt 0 1
vt 0 0
vn 0.7071067811865476 0 0.7071067811865475
usemtl m_0d83cb3b-f1ed-418c-ab52-8171ce971757
f 63/171/44 64/172/44 66/173/44 65/174/44
o plane
v -0.05935921676911443 0.84375 -0.5593592167691145
v -0.05935921676911443 1.84375 -0.5593592167691145
v 0.647747564417433 0.84375 0.14774756441743303
v 0.647747564417433 1.84375 0.14774756441743303
vt 1 0
vt 1 1
vt 0 1
vt 0 0
vn 0.7071067811865476 0 -0.7071067811865475
usemtl m_0d83cb3b-f1ed-418c-ab52-8171ce971757
f 67/175/45 68/176/45 70/177/45 69/178/45