# Made in Blockbench 4.12.4
mtllib BallistaBolt.mtl

o cylinder
v 7.875644580934705e-17 -1.5092094240998222e-16 -0.55
v -1.7104373473131317e-16 9.8879238130678e-17 0.575
v 0.031250000000000076 0.008373412263472432 -0.55
v 0.031249999999999827 0.008373412263472681 0.575
v 0.022876587736527496 0.02287658773652726 -0.55
v 0.022876587736527246 0.02287658773652751 0.575
v 0.00837341226347266 0.031249999999999847 -0.55
v 0.00837341226347241 0.0312500000000001 0.575
v -0.008373412263472508 0.031249999999999847 -0.55
v -0.008373412263472758 0.0312500000000001 0.575
v -0.022876587736527336 0.022876587736527267 -0.55
v -0.022876587736527586 0.022876587736527516 0.575
v -0.031249999999999917 0.008373412263472442 -0.55
v -0.03125000000000017 0.008373412263472692 0.575
v -0.031249999999999924 -0.008373412263472721 -0.55
v -0.031250000000000173 -0.008373412263472471 0.575
v -0.022876587736527343 -0.022876587736527565 -0.55
v -0.022876587736527593 -0.022876587736527315 0.575
v -0.008373412263472501 -0.031250000000000146 -0.55
v -0.00837341226347275 -0.031249999999999896 0.575
v 0.008373412263472647 -0.03125000000000015 -0.55
v 0.008373412263472397 -0.031249999999999903 0.575
v 0.02287658773652749 -0.022876587736527572 -0.55
v 0.02287658773652724 -0.022876587736527322 0.575
v 0.031250000000000076 -0.008373412263472732 -0.55
v 0.031249999999999827 -0.008373412263472482 0.575
vt 0.9455293892046125 0.5462963950594193
vt 0.9439606338253836 0.5383176157107401
vt 0.9431290126960784 0.5633044197067786
vt 0.9439606338253836 0.5383176157107401
vt 0.9455293892046125 0.5462963950594193
vt 0.015412714589863402 0.5483582306211952
vt 0.019460401293691393 0.5403670010362989
vt 0.019460401293691393 0.5403670010362989
vt 0.015412714589863402 0.5483582306211952
vt 0.021840670248002125 0.5653466850511046
vt 0.9464616023815875 0.5589690523582946
vt 0.9455293892046125 0.5462963950594193
vt 0.9431290126960784 0.5633044197067786
vt 0.9455293892046125 0.5462963950594193
vt 0.9464616023815875 0.5589690523582946
vt 0.013071094849586129 0.561038145173873
vt 0.015412714589863402 0.5483582306211952
vt 0.015412714589863402 0.5483582306211952
vt 0.013071094849586129 0.561038145173873
vt 0.021840670248002125 0.5653466850511046
vt 0.9464924019534277 0.5728632327657814
vt 0.9464616023815875 0.5589690523582946
vt 0.9431290126960784 0.5633044197067786
vt 0.9464616023815875 0.5589690523582946
vt 0.9464924019534277 0.5728632327657814
vt 0.013101900992101428 0.5749323255522285
vt 0.013071094849586129 0.561038145173873
vt 0.013071094849586129 0.561038145173873
vt 0.013101900992101428 0.5749323255522285
vt 0.021840670248002125 0.5653466850511046
vt 0.945613240077593 0.5841228597198875
vt 0.9464924019534277 0.5728632327657814
vt 0.9431290126960784 0.5633044197067786
vt 0.9464924019534277 0.5728632327657814
vt 0.945613240077593 0.5841228597198875
vt 0.015496583288555466 0.5861846952026328
vt 0.013101900992101428 0.5749323255522285
vt 0.013101900992101428 0.5749323255522285
vt 0.015496583288555466 0.5861846952026328
vt 0.021840670248002125 0.5653466850511046
vt 0.9440744846319341 0.5896775101364488
vt 0.945613240077593 0.5841228597198875
vt 0.9431290126960784 0.5633044197067786
vt 0.945613240077593 0.5841228597198875
vt 0.9440744846319341 0.5896775101364488
vt 0.019574276157428072 0.5917268953553497
vt 0.015496583288555466 0.5861846952026328
vt 0.015496583288555466 0.5861846952026328
vt 0.019574276157428072 0.5917268953553497
vt 0.021840670248002125 0.5653466850511046
vt 0.9423031499816853 0.5881182069531576
vt 0.9440744846319341 0.5896775101364488
vt 0.9431290126960784 0.5633044197067786
vt 0.9440744846319341 0.5896775101364488
vt 0.9423031499816853 0.5881182069531576
vt 0.02420445744668573 0.5901534016174923
vt 0.019574276157428072 0.5917268953553497
vt 0.019574276157428072 0.5917268953553497
vt 0.02420445744668573 0.5901534016174923
vt 0.021840670248002125 0.5653466850511046
vt 0.9407737747654272 0.5799926120101491
vt 0.9423031499816853 0.5881182069531576
vt 0.9431290126960784 0.5633044197067786
vt 0.9423031499816853 0.5881182069531576
vt 0.9407737747654272 0.5799926120101491
vt 0.02814774954538049 0.5820156751511958
vt 0.02420445744668573 0.5901534016174923
vt 0.02420445744668573 0.5901534016174923
vt 0.02814774954538049 0.5820156751511958
vt 0.021840670248002125 0.5653466850511046
vt 0.9398817363117274 0.5675288029452654
vt 0.9407737747654272 0.5799926120101491
vt 0.9431290126960784 0.5633044197067786
vt 0.9407737747654272 0.5799926120101491
vt 0.9398817363117274 0.5675288029452654
vt 0.030385747134199947 0.5695449275937077
vt 0.02814774954538049 0.5820156751511958
vt 0.02814774954538049 0.5820156751511958
vt 0.030385747134199947 0.5695449275937077
vt 0.021840670248002125 0.5653466850511046
vt 0.9398517251541816 0.553990309279287
vt 0.9398817363117274 0.5675288029452654
vt 0.9431290126960784 0.5633044197067786
vt 0.9398817363117274 0.5675288029452654
vt 0.9398517251541816 0.553990309279287
vt 0.030355729738087617 0.5560064339553881
vt 0.030385747134199947 0.5695449275937077
vt 0.030385747134199947 0.5695449275937077
vt 0.030355729738087617 0.5560064339553881
vt 0.021840670248002125 0.5653466850511046
vt 0.9406915005980125 0.5428774653255453
vt 0.9398517251541816 0.553990309279287
vt 0.9431290126960784 0.5633044197067786
vt 0.9398517251541816 0.553990309279287
vt 0.9406915005980125 0.5428774653255453
vt 0.028065458216367578 0.5449005285426785
vt 0.030355729738087617 0.5560064339553881
vt 0.030355729738087617 0.5560064339553881
vt 0.028065458216367578 0.5449005285426785
vt 0.021840670248002125 0.5653466850511046
vt 0.9421900874664162 0.5371139437661357
vt 0.9406915005980125 0.5428774653255453
vt 0.9431290126960784 0.5633044197067786
vt 0.9406915005980125 0.5428774653255453
vt 0.9421900874664162 0.5371139437661357
vt 0.024091371206235 0.5391491385356567
vt 0.028065458216367578 0.5449005285426785
vt 0.028065458216367578 0.5449005285426785
vt 0.024091371206235 0.5391491385356567
vt 0.021840670248002125 0.5653466850511046
vt 0.9439606338253836 0.5383176157107401
vt 0.9421900874664162 0.5371139437661357
vt 0.9431290126960784 0.5633044197067786
vt 0.9421900874664162 0.5371139437661357
vt 0.9439606338253836 0.5383176157107401
vt 0.019460401293691393 0.5403670010362989
vt 0.024091371206235 0.5391491385356567
vt 0.024091371206235 0.5391491385356567
vt 0.019460401293691393 0.5403670010362989
vt 0.021840670248002125 0.5653466850511046
vn 2.220446049250313e-16 -2.220446049250313e-16 -1
vn 0.8660254037844388 0.49999999999999994 8.127396617584078e-17
vn -2.220446049250313e-16 2.220446049250313e-16 1
vn 2.220446049250313e-16 -2.220446049250313e-16 -1
vn 0.5000000000000001 0.8660254037844387 -8.127396617584073e-17
vn -2.220446049250313e-16 2.220446049250313e-16 1
vn 2.220446049250313e-16 -2.220446049250313e-16 -1
vn 4.930380657631324e-32 1 -2.220446049250313e-16
vn -2.220446049250313e-16 2.220446049250313e-16 1
vn 2.220446049250313e-16 -2.220446049250313e-16 -1
vn -0.49999999999999994 0.8660254037844388 -3.0331857110087204e-16
vn -2.220446049250313e-16 2.220446049250313e-16 1
vn 2.220446049250313e-16 -2.220446049250313e-16 -1
vn -0.8660254037844388 0.5 -3.0331857110087204e-16
vn -2.220446049250313e-16 2.220446049250313e-16 1
vn 2.220446049250313e-16 -2.220446049250313e-16 -1
vn -1 4.1434087356338794e-16 -2.220446049250314e-16
vn -2.220446049250313e-16 2.220446049250313e-16 1
vn 2.220446049250313e-16 -2.220446049250313e-16 -1
vn -0.8660254037844392 -0.49999999999999956 -8.127396617584094e-17
vn -2.220446049250313e-16 2.220446049250313e-16 1
vn 2.220446049250313e-16 -2.220446049250313e-16 -1
vn -0.49999999999999956 -0.8660254037844392 8.127396617584094e-17
vn -2.220446049250313e-16 2.220446049250313e-16 1
vn 2.220446049250313e-16 -2.220446049250313e-16 -1
vn -4.143408735633883e-16 -1 2.220446049250312e-16
vn -2.220446049250313e-16 2.220446049250313e-16 1
vn 2.220446049250313e-16 -2.220446049250313e-16 -1
vn 0.49999999999999956 -0.8660254037844392 3.0331857110087204e-16
vn -2.220446049250313e-16 2.220446049250313e-16 1
vn 2.220446049250313e-16 -2.220446049250313e-16 -1
vn 0.8660254037844387 -0.4999999999999999 3.0331857110087204e-16
vn -2.220446049250313e-16 2.220446049250313e-16 1
vn 2.220446049250313e-16 -2.220446049250313e-16 -1
vn 1 0 2.220446049250313e-16
vn -2.220446049250313e-16 2.220446049250313e-16 1
usemtl m_62ac0071-6d8e-81c9-29fc-2fa941ec534f
f 5/1/1 3/2/1 1/3/1
f 3/4/2 5/5/2 6/6/2 4/7/2
f 4/8/3 6/9/3 2/10/3
f 7/11/4 5/12/4 1/13/4
f 5/14/5 7/15/5 8/16/5 6/17/5
f 6/18/6 8/19/6 2/20/6
f 9/21/7 7/22/7 1/23/7
f 7/24/8 9/25/8 10/26/8 8/27/8
f 8/28/9 10/29/9 2/30/9
f 11/31/10 9/32/10 1/33/10
f 9/34/11 11/35/11 12/36/11 10/37/11
f 10/38/12 12/39/12 2/40/12
f 13/41/13 11/42/13 1/43/13
f 11/44/14 13/45/14 14/46/14 12/47/14
f 12/48/15 14/49/15 2/50/15
f 15/51/16 13/52/16 1/53/16
f 13/54/17 15/55/17 16/56/17 14/57/17
f 14/58/18 16/59/18 2/60/18
f 17/61/19 15/62/19 1/63/19
f 15/64/20 17/65/20 18/66/20 16/67/20
f 16/68/21 18/69/21 2/70/21
f 19/71/22 17/72/22 1/73/22
f 17/74/23 19/75/23 20/76/23 18/77/23
f 18/78/24 20/79/24 2/80/24
f 21/81/25 19/82/25 1/83/25
f 19/84/26 21/85/26 22/86/26 20/87/26
f 20/88/27 22/89/27 2/90/27
f 23/91/28 21/92/28 1/93/28
f 21/94/29 23/95/29 24/96/29 22/97/29
f 22/98/30 24/99/30 2/100/30
f 25/101/31 23/102/31 1/103/31
f 23/104/32 25/105/32 26/106/32 24/107/32
f 24/108/33 26/109/33 2/110/33
f 3/111/34 25/112/34 1/113/34
f 25/114/35 3/115/35 4/116/35 26/117/35
f 26/118/36 4/119/36 2/120/36
o cone
v 1.3461454173580037e-16 3.8163916471489756e-17 -0.5437500000000006
v 2.178812685826871e-16 1.214306433183765e-16 -0.9187500000000006
v 0.06250000000000012 -0.016746824526945127 -0.5437500000000006
v 0.04575317547305497 -0.04575317547305478 -0.5437500000000006
v 0.0167468245269453 -0.06249999999999996 -0.5437500000000006
v -0.016746824526945037 -0.06249999999999996 -0.5437500000000006
v -0.04575317547305469 -0.0457531754730548 -0.5437500000000006
v -0.062499999999999854 -0.016746824526945148 -0.5437500000000006
v -0.06249999999999987 0.01674682452694518 -0.5437500000000006
v -0.04575317547305471 0.045753175473054866 -0.5437500000000006
v -0.016746824526945023 0.06250000000000003 -0.5437500000000006
v 0.016746824526945273 0.06250000000000004 -0.5437500000000006
v 0.045753175473054956 0.04575317547305488 -0.5437500000000006
v 0.06250000000000012 0.0167468245269452 -0.5437500000000006
vt 0.25726022291020106 0.4181435226250618
vt 0.2539025479670071 0.3956636686555757
vt 0.2521763910334368 0.4948451861287787
vt 0.2539025479670071 0.3956636686555757
vt 0.25726022291020106 0.4181435226250618
vt 0.8362724151575325 0.49355039163485437
vt 0.259227992021174 0.46024009108825337
vt 0.25726022291020106 0.4181435226250618
vt 0.2521763910334368 0.4948451861287787
vt 0.25726022291020106 0.4181435226250618
vt 0.259227992021174 0.46024009108825337
vt 0.8362724151575325 0.49355039163485437
vt 0.25934072171367095 0.5110895862211964
vt 0.259227992021174 0.46024009108825337
vt 0.2521763910334368 0.4948451861287787
vt 0.259227992021174 0.46024009108825337
vt 0.25934072171367095 0.5110895862211964
vt 0.8362724151575325 0.49355039163485437
vt 0.25757030633739386 0.5580142330054585
vt 0.25934072171367095 0.5110895862211964
vt 0.2521763910334368 0.4948451861287787
vt 0.25934072171367095 0.5110895862211964
vt 0.25757030633739386 0.5580142330054585
vt 0.8362724151575325 0.49355039163485437
vt 0.2543311925660772 0.5890142172017876
vt 0.25757030633739386 0.5580142330054585
vt 0.2521763910334368 0.4948451861287787
vt 0.25757030633739386 0.5580142330054585
vt 0.2543311925660772 0.5890142172017876
vt 0.8362724151575325 0.49355039163485437
vt 0.2504260784441771 0.5954146391600121
vt 0.2543311925660772 0.5890142172017876
vt 0.2521763910334368 0.4948451861287787
vt 0.2543311925660772 0.5890142172017876
vt 0.2504260784441771 0.5954146391600121
vt 0.8362724151575325 0.49355039163485437
vt 0.24689580898892421 0.5745152926350863
vt 0.2504260784441771 0.5954146391600121
vt 0.2521763910334368 0.4948451861287787
vt 0.2504260784441771 0.5954146391600121
vt 0.24689580898892421 0.5745152926350863
vt 0.8362724151575325 0.49355039163485437
vt 0.24474933518508374 0.5312927919916867
vt 0.24689580898892421 0.5745152926350863
vt 0.2521763910334368 0.4948451861287787
vt 0.24689580898892421 0.5745152926350863
vt 0.24474933518508374 0.5312927919916867
vt 0.8362724151575325 0.49355039163485437
vt 0.24463060311228563 0.47773587006358254
vt 0.24474933518508374 0.5312927919916867
vt 0.2521763910334368 0.4948451861287787
vt 0.24474933518508374 0.5312927919916867
vt 0.24463060311228563 0.47773587006358254
vt 0.8362724151575325 0.49355039163485437
vt 0.24657372454923315 0.4292314191652098
vt 0.24463060311228563 0.47773587006358254
vt 0.2521763910334368 0.4948451861287787
vt 0.24463060311228563 0.47773587006358254
vt 0.24657372454923315 0.4292314191652098
vt 0.8362724151575325 0.49355039163485437
vt 0.2499914352117396 0.39935835379187756
vt 0.24657372454923315 0.4292314191652098
vt 0.2521763910334368 0.4948451861287787
vt 0.24657372454923315 0.4292314191652098
vt 0.2499914352117396 0.39935835379187756
vt 0.8362724151575325 0.49355039163485437
vt 0.2539025479670071 0.3956636686555757
vt 0.2499914352117396 0.39935835379187756
vt 0.2521763910334368 0.4948451861287787
vt 0.2499914352117396 0.39935835379187756
vt 0.2539025479670071 0.3956636686555757
vt 0.8362724151575325 0.49355039163485437
vn -2.220446049250313e-16 -2.220446049250313e-16 1
vn 0.8542421961772494 -0.4931969619160718 -0.16439898730535724
vn -2.220446049250313e-16 -2.220446049250313e-16 1
vn 0.49319696191607193 -0.8542421961772491 -0.16439898730535737
vn -2.220446049250313e-16 -2.220446049250313e-16 1
vn 3.6503908186293346e-17 -0.9863939238321437 -0.1643989873053575
vn -2.220446049250313e-16 -2.220446049250313e-16 1
vn -0.4931969619160717 -0.8542421961772492 -0.1643989873053576
vn -2.220446049250313e-16 -2.220446049250313e-16 1
vn -0.8542421961772493 -0.4931969619160719 -0.1643989873053576
vn -2.220446049250313e-16 -2.220446049250313e-16 1
vn -0.9863939238321437 -3.7219941189193504e-16 -0.1643989873053575
vn -2.220446049250313e-16 -2.220446049250313e-16 1
vn -0.8542421961772495 0.49319696191607154 -0.16439898730535737
vn -2.220446049250313e-16 -2.220446049250313e-16 1
vn -0.4931969619160714 0.8542421961772494 -0.16439898730535718
vn -2.220446049250313e-16 -2.220446049250313e-16 1
vn -3.721994118919355e-16 0.9863939238321439 -0.16439898730535707
vn -2.220446049250313e-16 -2.220446049250313e-16 1
vn 0.4931969619160715 0.8542421961772494 -0.16439898730535696
vn -2.220446049250313e-16 -2.220446049250313e-16 1
vn 0.8542421961772492 0.4931969619160718 -0.16439898730535699
vn -2.220446049250313e-16 -2.220446049250313e-16 1
vn 0.9863939238321437 3.65039081862933e-17 -0.16439898730535707
usemtl m_62ac0071-6d8e-81c9-29fc-2fa941ec534f
f 30/121/37 29/122/37 27/123/37
f 29/124/38 30/125/38 28/126/38
f 31/127/39 30/128/39 27/129/39
f 30/130/40 31/131/40 28/132/40
f 32/133/41 31/134/41 27/135/41
f 31/136/42 32/137/42 28/138/42
f 33/139/43 32/140/43 27/141/43
f 32/142/44 33/143/44 28/144/44
f 34/145/45 33/146/45 27/147/45
f 33/148/46 34/149/46 28/150/46
f 35/151/47 34/152/47 27/153/47
f 34/154/48 35/155/48 28/156/48
f 36/157/49 35/158/49 27/159/49
f 35/160/50 36/161/50 28/162/50
f 37/163/51 36/164/51 27/165/51
f 36/166/52 37/167/52 28/168/52
f 38/169/53 37/170/53 27/171/53
f 37/172/54 38/173/54 28/174/54
f 39/175/55 38/176/55 27/177/55
f 38/178/56 39/179/56 28/180/56
f 40/181/57 39/182/57 27/183/57
f 39/184/58 40/185/58 28/186/58
f 29/187/59 40/188/59 27/189/59
f 40/190/60 29/191/60 28/192/60